# xmcd
#
# Track frame offsets:
#	150
#	12597
#	24921
#	32948
#	46262
#	56199
#	67497
#	77820
#	89082
#	101018
#	112845
#	123603
#	134405
#	143687
#	155707
#	167560
#
# Disc length: 2364 seconds
#
# Revision: 0
# Processed by: cddbd v1.4PL0 Copyright (c) Steve Scherf et al.
# Submitted via: dBpowerAMP V4.0
#
DISCID=e7093a10
DTITLE=Various Artist - Kings of Country
DYEAR=1999
DGENRE=Country
TTITLE0=Marty Robins/Tumbling Tumbleweeds
TTITLE1=Johnny Cash/Folsom Prison Blues
TTITLE2=Roger Miller/Dang Me
TTITLE3=Kenny Rogers/Ruby(Don't Take Your Love To Town)
TTITLE4=Jimmie Rogers/Honeycomb
TTITLE5=Hank Locklin/Send Me The Pillow That You Dream On
TTITLE6=Jerry Lee Lewis/Will The Circle Be Unbroken
TTITLE7=Jimmy Horton/All For The Love Of A Girl
TTITLE8=Willie Nelson/Shelter Of Your Arms
TTITLE9=T Texas Tyler/Remember Me
TTITLE10=Mickey Gilley/Without You
TTITLE11=Johnny Paycheck/Heartbeat Tennessee
TTITLE12=Jerry Wallace/In A Cotton Candy World
TTITLE13=Nev Nichols/Take Me To The Country
TTITLE14=Webb Pierce/High Geared Daddy
TTITLE15=Hank Locklin/Please Help Me I'm Falling
EXTD=
EXTT0=
EXTT1=
EXTT2=
EXTT3=
EXTT4=
EXTT5=
EXTT6=
EXTT7=
EXTT8=
EXTT9=
EXTT10=
EXTT11=
EXTT12=
EXTT13=
EXTT14=
EXTT15=
PLAYORDER=
